<svg xmlns="http://www.w3.org/2000/svg" xmlns:svg="http://www.w3.org/2000/svg" xmlns:xlink="http://www.w3.org/1999/xlink" id="svg3440" width="100" height="100" version="1.1" viewBox="0 0 43 43"><defs id="defs3"><linearGradient id="linearGradient6527"><stop id="stop6529" offset="0" stop-color="#346604" stop-opacity="1"/><stop id="stop6531" offset="1" stop-color="#4e9a06" stop-opacity="1"/></linearGradient><linearGradient id="linearGradient6001"><stop id="stop6003" offset="0" stop-color="#fff" stop-opacity="1"/><stop id="stop6005" offset="1" stop-color="#fff" stop-opacity="0"/></linearGradient><linearGradient id="linearGradient4825"><stop id="stop4827" offset="0" stop-color="#fff" stop-opacity="1"/><stop id="stop4829" offset="1" stop-color="#fff" stop-opacity="0"/></linearGradient><linearGradient id="linearGradient4126"><stop id="stop4128" offset="0" stop-color="#fff" stop-opacity="1"/><stop id="stop4130" offset="1" stop-color="#fff" stop-opacity=".165"/></linearGradient><linearGradient id="linearGradient4114"><stop id="stop4116" offset="0" stop-color="#000" stop-opacity="1"/><stop id="stop4118" offset="1" stop-color="#000" stop-opacity="0"/></linearGradient><linearGradient id="linearGradient3962"><stop id="stop3964" offset="0" stop-color="#d3e9ff" stop-opacity="1"/><stop id="stop4134" offset=".155" stop-color="#d3e9ff" stop-opacity="1"/><stop id="stop4346" offset=".75" stop-color="#4074ae" stop-opacity="1"/><stop id="stop3966" offset="1" stop-color="#36486c" stop-opacity="1"/></linearGradient><radialGradient id="radialGradient3968" cx="18.248" cy="15.716" r="29.993" fx="18.248" fy="15.716" gradientTransform="matrix(1.0810534,0,0,1.0810527,-4.810977,-2.8895259)" gradientUnits="userSpaceOnUse" xlink:href="#linearGradient3962"/><radialGradient id="radialGradient4120" cx="15.116" cy="63.965" r="12.289" fx="15.116" fy="63.965" gradientTransform="scale(1.64399,0.608276)" gradientUnits="userSpaceOnUse" xlink:href="#linearGradient4114"/><radialGradient id="radialGradient4132" cx="15.601" cy="12.142" r="43.527" fx="15.601" fy="12.142" gradientTransform="matrix(1.0810534,0,0,1.0810527,-4.810977,-2.8895259)" gradientUnits="userSpaceOnUse" xlink:href="#linearGradient4126"/><radialGradient id="radialGradient5983" cx="12.071" cy="12.493" r="6.718" fx="12.071" fy="12.493" gradientUnits="userSpaceOnUse" xlink:href="#linearGradient4825"/><radialGradient id="radialGradient5985" cx="12.071" cy="12.493" r="6.718" fx="12.071" fy="12.493" gradientUnits="userSpaceOnUse" xlink:href="#linearGradient4825"/><radialGradient id="radialGradient5987" cx="12.071" cy="12.493" r="6.718" fx="12.071" fy="12.493" gradientUnits="userSpaceOnUse" xlink:href="#linearGradient4825"/><radialGradient id="radialGradient5989" cx="12.071" cy="12.493" r="6.718" fx="12.071" fy="12.493" gradientUnits="userSpaceOnUse" xlink:href="#linearGradient4825"/><linearGradient id="linearGradient6007" x1="-25.176" x2="-22.252" y1="30.057" y2="21.042" gradientUnits="userSpaceOnUse" xlink:href="#linearGradient6001"/><linearGradient id="linearGradient6011" x1="-25.176" x2="-22.114" y1="30.057" y2="22.662" gradientUnits="userSpaceOnUse" xlink:href="#linearGradient6001"/><linearGradient id="linearGradient6015" x1="-22.823" x2="-22.114" y1="28.338" y2="22.662" gradientUnits="userSpaceOnUse" xlink:href="#linearGradient6001"/><linearGradient id="linearGradient6019" x1="-21.659" x2="-21.962" y1="15.649" y2="21.336" gradientUnits="userSpaceOnUse" xlink:href="#linearGradient6001"/><radialGradient id="radialGradient6533" cx="37.179" cy="31.097" r="19.094" fx="37.179" fy="31.097" gradientTransform="matrix(0.95295618,-0.02665615,0.02617771,0.93591558,0.66318174,2.1792646)" gradientUnits="userSpaceOnUse" xlink:href="#linearGradient6527"/><radialGradient id="radialGradient3976" cx="23.857" cy="40" r="17.143" fx="23.857" fy="40" gradientTransform="matrix(1,0,0,0.5,0,20)" gradientUnits="userSpaceOnUse" xlink:href="#linearGradient4126-4"/><linearGradient id="linearGradient4126-4"><stop id="stop4128-3" offset="0" stop-color="#000" stop-opacity="1"/><stop id="stop4130-7" offset="1" stop-color="#000" stop-opacity="0"/></linearGradient><radialGradient id="radialGradient6405" cx="37.179" cy="31.097" r="19.094" fx="37.179" fy="31.097" gradientTransform="matrix(0.95295618,-0.02665615,0.02617771,0.93591558,0.66318174,2.1792646)" gradientUnits="userSpaceOnUse" xlink:href="#linearGradient6527"/><radialGradient id="radialGradient6407" cx="37.179" cy="31.097" r="19.094" fx="37.179" fy="31.097" gradientTransform="matrix(0.95295618,-0.02665615,0.02617771,0.93591558,0.66318174,2.1792646)" gradientUnits="userSpaceOnUse" xlink:href="#linearGradient6527"/><radialGradient id="radialGradient6409" cx="37.179" cy="31.097" r="19.094" fx="37.179" fy="31.097" gradientTransform="matrix(0.95295618,-0.02665615,0.02617771,0.93591558,0.66318174,2.1792646)" gradientUnits="userSpaceOnUse" xlink:href="#linearGradient6527"/><radialGradient id="radialGradient6411" cx="37.179" cy="31.097" r="19.094" fx="37.179" fy="31.097" gradientTransform="matrix(0.95295618,-0.02665615,0.02617771,0.93591558,0.66318174,2.1792646)" gradientUnits="userSpaceOnUse" xlink:href="#linearGradient6527"/><radialGradient id="radialGradient6413" cx="37.179" cy="31.097" r="19.094" fx="37.179" fy="31.097" gradientTransform="matrix(0.95295618,-0.02665615,0.02617771,0.93591558,0.66318174,2.1792646)" gradientUnits="userSpaceOnUse" xlink:href="#linearGradient6527"/><radialGradient id="radialGradient6415" cx="37.179" cy="31.097" r="19.094" fx="37.179" fy="31.097" gradientTransform="matrix(0.95295618,-0.02665615,0.02617771,0.93591558,0.66318174,2.1792646)" gradientUnits="userSpaceOnUse" xlink:href="#linearGradient6527"/><radialGradient id="radialGradient6417" cx="37.179" cy="31.097" r="19.094" fx="37.179" fy="31.097" gradientTransform="matrix(0.95295618,-0.02665615,0.02617771,0.93591558,0.66318174,2.1792646)" gradientUnits="userSpaceOnUse" xlink:href="#linearGradient6527"/><radialGradient id="radialGradient6419" cx="37.179" cy="31.097" r="19.094" fx="37.179" fy="31.097" gradientTransform="matrix(0.95295618,-0.02665615,0.02617771,0.93591558,0.66318174,2.1792646)" gradientUnits="userSpaceOnUse" xlink:href="#linearGradient6527"/><radialGradient id="radialGradient6421" cx="37.179" cy="31.097" r="19.094" fx="37.179" fy="31.097" gradientTransform="matrix(0.95295618,-0.02665615,0.02617771,0.93591558,0.66318174,2.1792646)" gradientUnits="userSpaceOnUse" xlink:href="#linearGradient6527"/><radialGradient id="radialGradient6423" cx="37.179" cy="31.097" r="19.094" fx="37.179" fy="31.097" gradientTransform="matrix(0.95295618,-0.02665615,0.02617771,0.93591558,0.66318174,2.1792646)" gradientUnits="userSpaceOnUse" xlink:href="#linearGradient6527"/><radialGradient id="radialGradient6425" cx="37.179" cy="31.097" r="19.094" fx="37.179" fy="31.097" gradientTransform="matrix(0.95295618,-0.02665615,0.02617771,0.93591558,0.66318174,2.1792646)" gradientUnits="userSpaceOnUse" xlink:href="#linearGradient6527"/><radialGradient id="radialGradient6427" cx="37.179" cy="31.097" r="19.094" fx="37.179" fy="31.097" gradientTransform="matrix(0.95295618,-0.02665615,0.02617771,0.93591558,0.66318174,2.1792646)" gradientUnits="userSpaceOnUse" xlink:href="#linearGradient6527"/><radialGradient id="radialGradient6429" cx="37.179" cy="31.097" r="19.094" fx="37.179" fy="31.097" gradientTransform="matrix(0.95295618,-0.02665615,0.02617771,0.93591558,0.66318174,2.1792646)" gradientUnits="userSpaceOnUse" xlink:href="#linearGradient6527"/><radialGradient id="radialGradient6431" cx="37.179" cy="31.097" r="19.094" fx="37.179" fy="31.097" gradientTransform="matrix(0.95295618,-0.02665615,0.02617771,0.93591558,0.66318174,2.1792646)" gradientUnits="userSpaceOnUse" xlink:href="#linearGradient6527"/><radialGradient id="radialGradient6433" cx="37.179" cy="31.097" r="19.094" fx="37.179" fy="31.097" gradientTransform="matrix(0.95295618,-0.02665615,0.02617771,0.93591558,0.66318174,2.1792646)" gradientUnits="userSpaceOnUse" xlink:href="#linearGradient6527"/><radialGradient id="radialGradient6435" cx="37.179" cy="31.097" r="19.094" fx="37.179" fy="31.097" gradientTransform="matrix(0.95295618,-0.02665615,0.02617771,0.93591558,0.66318174,2.1792646)" gradientUnits="userSpaceOnUse" xlink:href="#linearGradient6527"/><radialGradient id="radialGradient6437" cx="37.179" cy="31.097" r="19.094" fx="37.179" fy="31.097" gradientTransform="matrix(0.95295618,-0.02665615,0.02617771,0.93591558,0.66318174,2.1792646)" gradientUnits="userSpaceOnUse" xlink:href="#linearGradient6527"/><radialGradient id="radialGradient6439" cx="37.179" cy="31.097" r="19.094" fx="37.179" fy="31.097" gradientTransform="matrix(0.95295618,-0.02665615,0.02617771,0.93591558,0.66318174,2.1792646)" gradientUnits="userSpaceOnUse" xlink:href="#linearGradient6527"/><radialGradient id="radialGradient6441" cx="37.179" cy="31.097" r="19.094" fx="37.179" fy="31.097" gradientTransform="matrix(0.95295618,-0.02665615,0.02617771,0.93591558,0.66318174,2.1792646)" gradientUnits="userSpaceOnUse" xlink:href="#linearGradient6527"/><radialGradient id="radialGradient6443" cx="37.179" cy="31.097" r="19.094" fx="37.179" fy="31.097" gradientTransform="matrix(0.95295618,-0.02665615,0.02617771,0.93591558,0.66318174,2.1792646)" gradientUnits="userSpaceOnUse" xlink:href="#linearGradient6527"/><radialGradient id="radialGradient6445" cx="37.179" cy="31.097" r="19.094" fx="37.179" fy="31.097" gradientTransform="matrix(0.95295618,-0.02665615,0.02617771,0.93591558,0.66318174,2.1792646)" gradientUnits="userSpaceOnUse" xlink:href="#linearGradient6527"/><radialGradient id="radialGradient6447" cx="37.179" cy="31.097" r="19.094" fx="37.179" fy="31.097" gradientTransform="matrix(0.95295618,-0.02665615,0.02617771,0.93591558,0.66318174,2.1792646)" gradientUnits="userSpaceOnUse" xlink:href="#linearGradient6527"/><radialGradient id="radialGradient6449" cx="37.179" cy="31.097" r="19.094" fx="37.179" fy="31.097" gradientTransform="matrix(0.95295618,-0.02665615,0.02617771,0.93591558,0.66318174,2.1792646)" gradientUnits="userSpaceOnUse" xlink:href="#linearGradient6527"/><radialGradient id="radialGradient6451" cx="37.179" cy="31.097" r="19.094" fx="37.179" fy="31.097" gradientTransform="matrix(0.95295618,-0.02665615,0.02617771,0.93591558,0.66318174,2.1792646)" gradientUnits="userSpaceOnUse" xlink:href="#linearGradient6527"/><radialGradient id="radialGradient6453" cx="37.179" cy="31.097" r="19.094" fx="37.179" fy="31.097" gradientTransform="matrix(0.95295618,-0.02665615,0.02617771,0.93591558,0.66318174,2.1792646)" gradientUnits="userSpaceOnUse" xlink:href="#linearGradient6527"/><radialGradient id="radialGradient6455" cx="37.179" cy="31.097" r="19.094" fx="37.179" fy="31.097" gradientTransform="matrix(0.95295618,-0.02665615,0.02617771,0.93591558,0.66318174,2.1792646)" gradientUnits="userSpaceOnUse" xlink:href="#linearGradient6527"/><radialGradient id="radialGradient6457" cx="37.179" cy="31.097" r="19.094" fx="37.179" fy="31.097" gradientTransform="matrix(0.95295618,-0.02665615,0.02617771,0.93591558,0.66318174,2.1792646)" gradientUnits="userSpaceOnUse" xlink:href="#linearGradient6527"/><radialGradient id="radialGradient6459" cx="37.179" cy="31.097" r="19.094" fx="37.179" fy="31.097" gradientTransform="matrix(0.95295618,-0.02665615,0.02617771,0.93591558,0.66318174,2.1792646)" gradientUnits="userSpaceOnUse" xlink:href="#linearGradient6527"/><radialGradient id="radialGradient6461" cx="37.179" cy="31.097" r="19.094" fx="37.179" fy="31.097" gradientTransform="matrix(0.95295618,-0.02665615,0.02617771,0.93591558,0.66318174,2.1792646)" gradientUnits="userSpaceOnUse" xlink:href="#linearGradient6527"/><radialGradient id="radialGradient6463" cx="37.179" cy="31.097" r="19.094" fx="37.179" fy="31.097" gradientTransform="matrix(0.95295618,-0.02665615,0.02617771,0.93591558,0.66318174,2.1792646)" gradientUnits="userSpaceOnUse" xlink:href="#linearGradient6527"/><radialGradient id="radialGradient6465" cx="37.179" cy="31.097" r="19.094" fx="37.179" fy="31.097" gradientTransform="matrix(0.95295618,-0.02665615,0.02617771,0.93591558,0.66318174,2.1792646)" gradientUnits="userSpaceOnUse" xlink:href="#linearGradient6527"/><radialGradient id="radialGradient6467" cx="37.179" cy="31.097" r="19.094" fx="37.179" fy="31.097" gradientTransform="matrix(0.95295618,-0.02665615,0.02617771,0.93591558,0.66318174,2.1792646)" gradientUnits="userSpaceOnUse" xlink:href="#linearGradient6527"/><radialGradient id="radialGradient6469" cx="37.179" cy="31.097" r="19.094" fx="37.179" fy="31.097" gradientTransform="matrix(0.95295618,-0.02665615,0.02617771,0.93591558,0.66318174,2.1792646)" gradientUnits="userSpaceOnUse" xlink:href="#linearGradient6527"/><radialGradient id="radialGradient6471" cx="37.179" cy="31.097" r="19.094" fx="37.179" fy="31.097" gradientTransform="matrix(0.95295618,-0.02665615,0.02617771,0.93591558,0.66318174,2.1792646)" gradientUnits="userSpaceOnUse" xlink:href="#linearGradient6527"/><radialGradient id="radialGradient6473" cx="37.179" cy="31.097" r="19.094" fx="37.179" fy="31.097" gradientTransform="matrix(0.95295618,-0.02665615,0.02617771,0.93591558,0.66318174,2.1792646)" gradientUnits="userSpaceOnUse" xlink:href="#linearGradient6527"/><radialGradient id="radialGradient6475" cx="37.179" cy="31.097" r="19.094" fx="37.179" fy="31.097" gradientTransform="matrix(0.95295618,-0.02665615,0.02617771,0.93591558,0.66318174,2.1792646)" gradientUnits="userSpaceOnUse" xlink:href="#linearGradient6527"/><radialGradient id="radialGradient6477" cx="37.179" cy="31.097" r="19.094" fx="37.179" fy="31.097" gradientTransform="matrix(0.95295618,-0.02665615,0.02617771,0.93591558,0.66318174,2.1792646)" gradientUnits="userSpaceOnUse" xlink:href="#linearGradient6527"/><radialGradient id="radialGradient6479" cx="37.179" cy="31.097" r="19.094" fx="37.179" fy="31.097" gradientTransform="matrix(0.95295618,-0.02665615,0.02617771,0.93591558,0.66318174,2.1792646)" gradientUnits="userSpaceOnUse" xlink:href="#linearGradient6527"/><radialGradient id="radialGradient6481" cx="37.179" cy="31.097" r="19.094" fx="37.179" fy="31.097" gradientTransform="matrix(0.95295618,-0.02665615,0.02617771,0.93591558,0.66318174,2.1792646)" gradientUnits="userSpaceOnUse" xlink:href="#linearGradient6527"/><radialGradient id="radialGradient6483" cx="37.179" cy="31.097" r="19.094" fx="37.179" fy="31.097" gradientTransform="matrix(0.95295618,-0.02665615,0.02617771,0.93591558,0.66318174,2.1792646)" gradientUnits="userSpaceOnUse" xlink:href="#linearGradient6527"/></defs><metadata id="metadata4"/><g id="layer1" transform="translate(-0.25000004,-1)"><path id="path3214" fill="url(#radialGradient3968)" fill-opacity="1" fill-rule="nonzero" stroke="#39396c" stroke-miterlimit="4" stroke-opacity="1" stroke-width="1.075" d="m 42.712498,22.499256 c 0,11.577642 -9.385921,20.963242 -20.962233,20.963242 C 10.172891,43.462498 0.7875,34.076791 0.7875,22.499256 0.7875,10.922145 10.172891,1.5375 21.750265,1.5375 c 11.576312,0 20.962233,9.384645 20.962233,20.961756 l 0,0 z"/><g id="g4136" fill="url(#radialGradient6533)" fill-opacity="1" fill-rule="nonzero" stroke="none" transform="matrix(1.0620073,0,0,1.0619831,-4.680083,-2.6377365)"><g id="g4138" fill="url(#radialGradient6409)" fill-opacity="1"><g id="g4142" fill="url(#radialGradient6407)" fill-opacity="1"><path id="path4144" fill="url(#radialGradient6405)" fill-opacity="1" d="M 43.879656,20.648284 43.5264,21.3316 c -0.334,-0.3936 -0.709,-0.7246 -1.0898,-1.0703 l -0.8359,0.123 -0.7637,-0.8633 0,1.0684 0.6543,0.4951 0.4355,0.4932 0.582,-0.6582 c 0.1465,0.2744 0.291,0.5488 0.4365,0.8232 l 0,0.8223 -0.6553,0.7402 -1.1992,0.8232 -0.9082,0.9063 -0.582,-0.6602 0.291,-0.7402 -0.5811,-0.6582 -0.9814,-2.0977 -0.8359,-0.9453 -0.2188,0.2461 0.3281,1.1934 0.6172,0.6992 c 0.3525,1.0176 0.7012,1.9902 1.1641,2.9629 0.7178,0 1.3945,-0.0762 2.1074,-0.166 l 0,0.5762 -0.8721,2.1392 -0.7998,0.9043 -0.6543,1.4004 c 0,0.7676 0,1.5352 0,2.3027 l 0.2188,0.9063 -0.3633,0.4102 -0.8008,0.4941 -0.8359,0.6992 0.6914,0.7813 -0.9453,0.8242 0.1816,0.5332 -1.418,1.6055 -0.9443,0 -0.7998,0.4941 -0.5098,0 0,-0.6582 -0.2168,-1.3184 c -0.2813,-0.8262 -0.5742,-1.6465 -0.8721,-2.4668 0,-0.6055 0.0361,-1.2051 0.0723,-1.8105 l 0.3643,-0.8223 -0.5098,-0.9883 0.0371,-1.3574 -0.6914,-0.7813 0.3457,-1.1309 -0.5625,-0.6382 -0.9824,0 -0.3271,-0.3701 -0.9814,0.6177 -0.3994,-0.4536 -0.9092,0.7817 c -0.6172,-0.6997 -1.2354,-1.3989 -1.8535,-2.0981 l -0.7266,-1.7285 0.6543,-0.9863 -0.3633,-0.4111 0.7988,-1.8936 c 0.6563,-0.8164 1.3418,-1.5996 2.0352,-2.3857 l 1.2363,-0.3291 1.3809,-0.1641 0.9453,0.2471 1.3447,1.3564 0.4727,-0.5342 0.6533,-0.082 1.2363,0.4111 0.9453,0 0.6543,-0.5762 0.291,-0.4111 -0.6553,-0.4111 -1.0908,-0.082 c -0.3027,-0.4199 -0.584,-0.8613 -0.9434,-1.2344 l -0.3643,0.1641 -0.1455,1.0703 -0.6543,-0.7402 -0.1445,-0.8242 -0.7266,-0.5742 -0.292,0 0.7275,0.8223 -0.291,0.7402 -0.5811,0.1641 0.3633,-0.7402 -0.6553,-0.3281 -0.5801,-0.6582 -1.0918,0.2461 -0.1445,0.3281 -0.6543,0.4121 -0.3633,0.9053 -0.9082,0.4521 -0.4004,-0.4521 -0.4355,0 0,-1.4814 0.9453,-0.4941 0.7266,0 -0.1465,-0.5752 -0.5801,-0.5762 0.9805,-0.2061 0.5449,-0.6162 0.4355,-0.7412 0.8008,0 -0.2188,-0.5752 0.5098,-0.3291 0,0.6582 1.0898,0.2461 1.0898,-0.9043 0.0732,-0.4121 0.9443,-0.6577 c -0.3418,0.0425 -0.6836,0.0737 -1.0176,0.1646 l 0,-0.7411 0.3633,-0.8228 -0.3633,0 -0.7984,0.7402 -0.2188,0.4116 0.2188,0.5767 -0.3643,0.9863 -0.5811,-0.3291 -0.5078,-0.5752 -0.8008,0.5752 -0.291,-1.3159 1.3809,-0.9048 0,-0.4941 0.873,-0.5757 1.3809,-0.3296 0.9453,0.3296 1.7441,0.3291 -0.4355,0.4932 -0.9453,0 0.9453,0.9873 0.7266,-0.8223 0.157078,-0.282273 c 3.129549,2.868759 5.87898,6.664564 6.592678,11.694257 z"/></g></g><g id="g4146" fill="url(#radialGradient6415)" fill-opacity="1"><g id="g4150" fill="url(#radialGradient6413)" fill-opacity="1"><path id="path4152" fill="url(#radialGradient6411)" fill-opacity="1" d="m 26.0703,9.2363 -0.0732,0.4932 0.5098,0.3291 0.8711,-0.5757 -0.4355,-0.4937 -0.582,0.3296 -0.29,-0.0825"/></g></g><g id="g4154" fill="url(#radialGradient6421)" fill-opacity="1"><g id="g4158" fill="url(#radialGradient6419)" fill-opacity="1"><path id="path4160" fill="url(#radialGradient6417)" fill-opacity="1" d="m 26.8701,5.8633 -1.8906,-0.7407 -2.1797,0.2466 -2.6904,0.7402 -0.5088,0.4941 1.6719,1.1514 0,0.6582 -0.6543,0.6582 0.873,1.729 0.5801,-0.3301 0.7285,-1.1514 c 1.123,-0.3472 2.1299,-0.7407 3.1973,-1.2344 l 0.873,-2.2212"/></g></g><g id="g4162" fill="url(#radialGradient6427)" fill-opacity="1"><g id="g4166" fill="url(#radialGradient6425)" fill-opacity="1"><path id="path4168" fill="url(#radialGradient6423)" fill-opacity="1" d="m 28.833,12.7749 -0.291,-0.7412 -0.5098,0.165 0.1465,0.9043 0.6543,-0.3281"/></g></g><g id="g4170" fill="url(#radialGradient6433)" fill-opacity="1"><g id="g4174" fill="url(#radialGradient6431)" fill-opacity="1"><path id="path4176" fill="url(#radialGradient6429)" fill-opacity="1" d="m 29.123,12.6089 -0.1455,0.9883 0.7998,-0.165 0.5811,-0.5752 -0.5088,-0.4941 C 29.6787,11.9078 29.4824,11.483 29.2685,11.0465 l -0.4355,0 0,0.4932 0.29,0.3291 0,0.7402"/></g></g><g id="g4178" fill="url(#radialGradient6439)" fill-opacity="1"><g id="g4182" fill="url(#radialGradient6437)" fill-opacity="1"><path id="path4184" fill="url(#radialGradient6435)" fill-opacity="1" d="m 18.3652,28.2422 -0.582,-1.1523 -1.0903,-0.2466 -0.5815,-1.5625 -1.4536,0.1641 -1.2354,-0.9043 -1.3091,1.1514 0,0.1816 c -0.396,-0.1143 -0.8828,-0.1299 -1.2354,-0.3467 l -0.291,-0.8223 0,-0.9053 -0.8721,0.082 c 0.0728,-0.5762 0.145,-1.1514 0.2183,-1.7275 l -0.5093,0 -0.5083,0.6582 -0.5093,0.2461 -0.7271,-0.4102 -0.0728,-0.9053 0.1455,-0.9873 1.0908,-0.8223 0.8721,0 0.145,-0.4941 1.0903,0.2461 0.7998,0.9883 0.1455,-1.6465 1.3813,-1.1514 0.5088,-1.2344 1.0176,-0.4111 0.5815,-0.8223 1.3081,-0.248 0.6548,-0.9863 c -0.6543,0 -1.3086,0 -1.9629,0 l 1.2358,-0.5762 0.8716,0 1.2363,-0.4121 0.1455,-0.4922 -0.4365,-0.4121 -0.5088,-0.165 0.1455,-0.4932 -0.3633,-0.7402 -0.8726,0.3281 0.1455,-0.6577 -1.0176,-0.5762 -0.7993,1.3979 0.0723,0.4941 -0.7993,0.3301 -0.5093,1.0693 -0.2178,-0.9873 -1.3813,-0.5762 -0.2183,-0.7402 1.8174,-1.0703 0.7998,-0.7402 0.0728,-0.9048 -0.436,-0.2471 -0.5815,-0.0825 -0.3633,0.9053 c 0,0 -0.703332,0.055478 -0.859632,0.094078 C 9.9867169,11.059151 6.5013568,14.983265 5.6916,22.2885 c 0.0371,0.1738 0.6792,1.1816 0.6792,1.1816 l 1.5264,0.9043 1.5264,0.4121 0.6548,0.8232 1.0171,0.7402 0.5815,-0.082 0.436,0.1963 0,0.1328 -0.5811,1.563 -0.4365,0.6582 0.1455,0.3301 -0.3633,1.2324 1.3086,2.3867 1.3081,1.1523 0.582,0.8223 -0.0732,1.7285 0.4365,0.9863 -0.4365,1.8926 c 0,0 -0.0342,-0.0117 0.0215,0.1777 0.0562,0.1895 2.3291,1.4512 2.4736,1.3438 0.144,-0.1094 0.2671,-0.2051 0.2671,-0.2051 l -0.145,-0.4102 0.5811,-0.5762 0.2183,-0.5762 0.9453,-0.3301 0.7266,-1.8105 -0.2178,-0.4922 0.5078,-0.7402 1.0908,-0.248 0.582,-1.3164 -0.1455,-1.6445 0.8721,-1.2344 0.1455,-1.2344 C 20.7331,29.4607 19.5495,28.8513 18.365,28.242"/></g></g><g id="g4186" fill="url(#radialGradient6445)" fill-opacity="1"><g id="g4190" fill="url(#radialGradient6443)" fill-opacity="1"><path id="path4192" fill="url(#radialGradient6441)" fill-opacity="1" d="m 16.7656,9.5649 0.7266,0.4937 0.582,0 0,-0.5757 -0.7266,-0.3291 -0.582,0.4111"/></g></g><g id="g4194" fill="url(#radialGradient6451)" fill-opacity="1"><g id="g4198" fill="url(#radialGradient6449)" fill-opacity="1"><path id="path4200" fill="url(#radialGradient6447)" fill-opacity="1" d="m 14.876,8.9072 -0.3638,0.9048 0.7271,0 0.3638,-0.8228 C 15.9166,8.7675 16.2286,8.5444 16.5479,8.331 l 0.7271,0.2471 c 0.4844,0.3291 0.9688,0.6582 1.4536,0.9868 L 19.4561,8.9072 18.6558,8.5781 18.292,7.8374 16.9111,7.6728 16.8383,7.2612 16.184,7.4262 15.8936,8.002 15.5298,7.2613 l -0.145,0.3291 0.0728,0.8228 -0.5816,0.494"/></g></g><g id="g4202" fill="url(#radialGradient6461)" fill-opacity="1"><g id="g4204" fill="url(#radialGradient6455)" fill-opacity="1" opacity=".75"><path id="path4206" fill="url(#radialGradient6453)" fill-opacity="1"/></g><g id="g4208" fill="url(#radialGradient6459)" fill-opacity="1"><path id="path4210" fill="url(#radialGradient6457)" fill-opacity="1"/></g></g><g id="g4212" fill="url(#radialGradient6471)" fill-opacity="1"><g id="g4214" fill="url(#radialGradient6465)" fill-opacity="1" opacity=".75"><path id="path4216" fill="url(#radialGradient6463)" fill-opacity="1"/></g><g id="g4218" fill="url(#radialGradient6469)" fill-opacity="1"><path id="path4220" fill="url(#radialGradient6467)" fill-opacity="1"/></g></g><g id="g4222" fill="url(#radialGradient6477)" fill-opacity="1"><g id="g4226" fill="url(#radialGradient6475)" fill-opacity="1"><path id="path4228" fill="url(#radialGradient6473)" fill-opacity="1" d="M 17.4922,6.8496 17.856,6.521 18.5831,6.3564 c 0.498,-0.2422 0.998,-0.4053 1.5264,-0.5762 l -0.29,-0.4937 -0.9385,0.1348 -0.4434,0.4419 -0.731,0.106 -0.6499,0.3052 -0.3159,0.1528 -0.1929,0.2583 0.9443,0.1641"/></g></g><g id="g4230" fill="url(#radialGradient6483)" fill-opacity="1"><g id="g4234" fill="url(#radialGradient6481)" fill-opacity="1"><path id="path4236" fill="url(#radialGradient6479)" fill-opacity="1" d="m 18.7285,14.6665 0.4365,-0.6582 -0.6548,-0.4932 0.2183,1.1514"/></g></g></g><path id="path4122" fill="none" stroke="url(#radialGradient4132)" stroke-miterlimit="4" stroke-opacity="1" stroke-width="1.075" d="m 41.647908,22.499294 c 0,10.989665 -8.909253,19.898615 -19.897656,19.898615 -10.989413,0 -19.898162,-8.90905 -19.898162,-19.898615 0,-10.989163 8.908749,-19.8972042 19.898162,-19.8972042 10.988403,0 19.897656,8.9080412 19.897656,19.8972042 l 0,0 z" opacity=".396"/></g></svg>